<?xml version="1.0" standalone="no"?>
<!DOCTYPE svg PUBLIC "-//W3C//DTD SVG 20010904//EN"
 "http://www.w3.org/TR/2001/REC-SVG-20010904/DTD/svg10.dtd">
<svg version="1.0" xmlns="http://www.w3.org/2000/svg"
 width="280.000000pt" height="280.000000pt" viewBox="0 0 280.000000 280.000000"
 preserveAspectRatio="xMidYMid meet">
<metadata>
Created by potrace 1.14, written by Peter Selinger 2001-2017
</metadata>
<g transform="translate(0.000000,280.000000) scale(0.100000,-0.100000)"
fill="#000000" stroke="none">
<path d="M1270 2303 c-67 -109 -233 -378 -369 -598 -353 -573 -755 -1223 -828
-1343 -35 -56 -60 -102 -56 -102 25 0 163 54 175 68 8 9 59 87 113 172 95 149
148 232 260 405 129 200 372 579 395 615 14 22 124 194 245 382 121 188 236
367 256 397 l35 56 -44 73 c-24 39 -47 72 -52 72 -5 0 -63 -89 -130 -197z"/>
<path d="M1538 2153 c-30 -47 -35 -60 -26 -77 12 -22 335 -547 373 -606 13
-19 50 -80 84 -135 79 -128 44 -73 325 -525 342 -549 295 -488 396 -522 46
-15 87 -27 91 -26 3 2 -80 142 -185 313 -106 171 -300 486 -433 700 -132 215
-315 512 -407 660 -92 149 -170 271 -174 272 -4 2 -24 -23 -44 -54z"/>
<path d="M1347 1857 c-31 -51 -111 -175 -177 -277 -65 -102 -203 -315 -305
-475 -102 -159 -238 -371 -302 -470 -143 -223 -160 -251 -145 -241 13 8 403
144 447 156 17 4 119 39 228 76 l198 68 -51 31 c-27 16 -50 33 -50 38 0 4 11
25 25 46 l25 38 161 0 160 0 26 -44 c14 -24 24 -45 22 -47 -2 -2 -26 -17 -52
-33 l-48 -30 48 -16 c225 -75 627 -212 707 -241 54 -20 102 -36 107 -36 6 0 1
12 -10 28 -10 15 -227 363 -481 775 -254 411 -465 747 -469 747 -3 -1 -32 -42
-64 -93z m184 -365 c69 -114 192 -316 273 -450 82 -134 147 -245 145 -246 -2
-2 -30 -18 -61 -36 l-57 -32 -28 44 c-15 25 -111 180 -213 346 -102 166 -187
301 -190 301 -3 0 -48 -70 -100 -156 -52 -85 -104 -170 -115 -187 -12 -17 -56
-89 -100 -161 -43 -71 -87 -142 -98 -158 l-19 -27 -56 31 c-31 17 -59 32 -60
34 -2 2 42 79 98 172 385 635 445 733 450 733 3 0 62 -94 131 -208z m-59 -499
l64 -108 -129 1 c-70 1 -131 5 -134 8 -4 3 1 14 9 23 9 10 17 23 19 28 10 26
92 155 99 155 4 0 36 -48 72 -107z"/>
</g>
</svg>
